<?xml version="1.0" encoding="UTF-8"?>
<svg id="Calque_1" xmlns="http://www.w3.org/2000/svg" version="1.1" viewBox="0 0 1312.02 1178.47">
  <!-- Generator: Adobe Illustrator 29.3.0, SVG Export Plug-In . SVG Version: 2.1.0 Build 146)  -->
  <defs>
    <style>
      .st0 {
        stroke-width: 26.06px;
      }

      .st0, .st1 {
        fill: none;
        stroke: #b1b1b1;
        stroke-linecap: round;
        stroke-miterlimit: 10;
      }

      .st1 {
        stroke-width: 19.55px;
      }

      .st2 {
        fill: #1d1d1b;
      }

      .st3 {
        fill: #755699;
      }

      .st4 {
        fill: #fff;
      }
    </style>
  </defs>
  <g>
    <path class="st2" d="M562.45,701.84s-66.52,41.82-143.19-26.56c-76.67-68.38-239.94-267.25-261.61-288.74-17.84-17.69-38.25,26.54-25.73,53.26,18.3,39.06,186.3,215.18,236.15,254.4,49.85,39.21,122.86,83.19,209.5,39.71,86.65-43.47-15.12-32.07-15.12-32.07Z"/>
    <path d="M812.2,1099.07h114.12s-2-26.03-24.02-26.03c-22.02,0-62.5-8.07-62.5-30.82v-213.43s-27.59,0-27.59,0v270.28Z"/>
    <path d="M781.42,1099.07h-114.12s2-26.03,24.02-26.03c22.02,0,62.5-8.07,62.5-30.82v-213.43s27.59,0,27.59,0v270.28Z"/>
    <path class="st3" d="M933.58,192.88c-140.37-41.28-357.61-14.75-441.7,107.37-84.09,122.12-55.81,303.49,50.37,432.85,127.81,155.72,365.7,144.84,451.13,102.21,78.58-39.21,214.79-151.83,197.71-367.84-12.86-162.56-155.4-244.56-257.51-274.59Z"/>
    <path class="st2" d="M1101.09,751.92c1.37,4.84,2.39,10.6,2.84,17.2,3.46,50.34,10.64,116.1-21.28,135.45-31.93,19.35-79.33,13.54-108.36-6.77-29.02-20.32-55.15-51.03-64.82-55.02-9.67-3.99-22.25-16.57-12.58-32.05,9.67-15.48,55.15-18.38,65.79-2.9,10.64,15.48,14.51,46.44,32.89,59.98,18.38,13.54,51.28,24.19,69.66,9.67,18.38-14.51,19.74-53.92,14.9-104.23l20.96-21.34Z"/>
    <g>
      <path class="st4" d="M486.77,385.24c.92,29.93,126.88,76.35,222.32,116.65,95.44,40.3,209.96,95.44,229.05,86.95,19.09-8.48,42.42-118.77,0-173.91-42.42-55.14-168-113.27-252.38-123.01-110.28-12.72-200.75,36.05-198.99,93.32Z"/>
      <path class="st2" d="M595.35,359.17c20.65,7.46,18.19,32.3,15.13,38.2-5.67,10.96-19.04-.44-27.3-5.73-9.47-6.07-19.33-2.28-23.15-10.87-2.28-5.13,9.37-30.97,35.31-21.6Z"/>
      <path class="st2" d="M824.03,458.13c20.65,7.46,18.19,32.3,15.13,38.2-5.67,10.96-19.04-.44-27.3-5.73-9.47-6.07-19.33-2.28-23.15-10.87-2.28-5.13,9.37-30.97,35.31-21.6Z"/>
    </g>
  </g>
  <g>
    <line class="st0" x1="147.01" y1="79.4" x2="147.01" y2="1099.07"/>
    <line class="st0" x1="336.01" y1="79.4" x2="336.01" y2="1099.07"/>
    <line class="st1" x1="147.01" y1="119.1" x2="336.01" y2="308.1"/>
    <polyline class="st1" points="147.01 308.1 147.01 119.1 336.01 119.1 336.01 308.1"/>
    <line class="st1" x1="336.01" y1="119.1" x2="147.01" y2="308.1"/>
    <line class="st1" x1="147.01" y1="308.1" x2="336.01" y2="497.1"/>
    <polyline class="st1" points="147.01 497.1 147.01 308.1 336.01 308.1 336.01 497.1"/>
    <line class="st1" x1="336.01" y1="308.1" x2="147.01" y2="497.1"/>
    <line class="st1" x1="147.01" y1="497.1" x2="336.01" y2="686.1"/>
    <polyline class="st1" points="147.01 686.1 147.01 497.1 336.01 497.1 336.01 686.1"/>
    <line class="st1" x1="336.01" y1="497.1" x2="147.01" y2="686.1"/>
    <line class="st1" x1="147.01" y1="686.1" x2="336.01" y2="875.1"/>
    <polyline class="st1" points="147.01 875.1 147.01 686.1 336.01 686.1 336.01 875.1"/>
    <line class="st1" x1="336.01" y1="686.1" x2="147.01" y2="875.1"/>
    <line class="st1" x1="147.01" y1="875.1" x2="336.01" y2="1064.1"/>
    <line class="st1" x1="336.01" y1="875.1" x2="147.01" y2="1064.1"/>
    <rect class="st1" x="147.01" y="875.1" width="189" height="189"/>
  </g>
  <path class="st2" d="M133.94,443.64c-19.61-18.82-16.73-57.94-6.4-67.32,10.32-9.39,43.79-21.56,46.77,3.54,2.99,25.09-3.1,44.21-13.44,48.09-10.34,3.88-25,1.55-26.93,15.69Z"/>
</svg>