<?xml version="1.0" encoding="UTF-8"?>
<svg id="Calque_1" xmlns="http://www.w3.org/2000/svg" version="1.1" viewBox="0 0 975.39 1016.41">
  <!-- Generator: Adobe Illustrator 29.3.0, SVG Export Plug-In . SVG Version: 2.1.0 Build 146)  -->
  <defs>
    <style>
      .st0 {
        fill: #e76f38;
      }

      .st1 {
        fill: #1d1d1b;
      }

      .st2 {
        fill: #fff;
      }
    </style>
  </defs>
  <path d="M441.47,976.54h-115.64s2.03-26.37,24.35-26.37,63.33-8.18,63.33-31.23v-216.28h27.96v273.89Z"/>
  <path d="M472.66,976.54h115.64s-2.03-26.37-24.35-26.37c-22.32,0-63.33-8.18-63.33-31.23v-216.28s-27.96,0-27.96,0v273.89Z"/>
  <path class="st0" d="M318.48,58.24c142.24-41.84,362.39-14.95,447.6,108.81,85.21,123.76,56.55,307.54-51.04,438.64-129.52,157.81-370.59,146.78-457.16,103.58-79.63-39.74-217.66-153.86-200.35-372.76C70.56,171.77,215.01,88.67,318.48,58.24Z"/>
  <path class="st2" d="M371.65,191.81c68.15-36.2,209.59-46.4,257.24-39.58,47.64,6.83,110.87,29.54,123.67,90.28,12.8,60.74-2.47,110.95-86.37,169.49-83.9,58.53-200.77,70.63-274.49,68.05-73.73-2.58-118.07-49.71-123.93-139.84-4.49-69.09,39.22-114.06,103.88-148.41Z"/>
  <ellipse cx="415.41" cy="327" rx="23.85" ry="27.93" transform="translate(-68.59 114.31) rotate(-14.49)"/>
  <ellipse cx="685.5" cy="257.22" rx="23.85" ry="27.93" transform="translate(-42.55 179.65) rotate(-14.49)"/>
  <path class="st1" d="M148.72,624.75c-1.39,4.9-2.42,10.75-2.88,17.43-3.51,51.01-10.78,117.65,21.57,137.26,32.35,19.61,80.39,13.73,109.81-6.86,29.41-20.59,55.88-51.71,65.69-55.76,9.8-4.05,22.55-16.79,12.75-32.48-9.8-15.69-55.88-18.63-66.67-2.94-10.78,15.69-14.71,47.06-33.33,60.79-18.63,13.73-51.96,24.51-70.59,9.8-18.63-14.71-20-54.64-15.1-105.62l-21.24-21.62Z"/>
  <path class="st1" d="M733.01,582.27c29.77,3.72,64.57,5.86,96.19-2.83,39.22-10.78,57.84-36.28,50.98-66.67-6.86-30.39-26.47-54.9-43.14-50.98-16.67,3.92-43.14,9.8-47.06-7.84-3.92-17.65,4.34-21.57,7.07-28.43,2.73-6.86-17.86,0-25.7,0s-16.67-17.65.98-22.55c17.65-4.9,46.08-13.73,61.77-8.82,15.69,4.9,38.24,24.51,55.88,48.04,17.65,23.53,35.3,60.79,27.45,91.18-7.84,30.39-28.43,53.92-60.79,63.73-27.85,8.44-102.13,13.29-138.41,4.65l14.77-19.47Z"/>
</svg>