<?xml version="1.0" encoding="UTF-8"?>
<svg id="Calque_1" xmlns="http://www.w3.org/2000/svg" version="1.1" viewBox="0 0 944.75 1148.06">
  <!-- Generator: Adobe Illustrator 29.3.0, SVG Export Plug-In . SVG Version: 2.1.0 Build 146)  -->
  <defs>
    <style>
      .st0 {
        fill: #1d1d1b;
      }

      .st1 {
        fill: #fff;
      }

      .st2 {
        fill: #9bd1cd;
      }
    </style>
  </defs>
  <path class="st0" d="M167.83,537.81c-13.78,18.34-32.67-77.09-40.79-120.99-31.66-171.08-8.32-267.96-40.16-298.88-31.84-30.92-12.83-50.23,20.22-51.64,72.56-3.1,61.76,23.47,49.69,61.14-12.08,37.7-27.24,123.59-4.79,278.15,5.66,38.95,31.08,111.92,15.83,132.21Z"/>
  <path class="st0" d="M762.03,547.71c13.17,18.79,35.22-75.95,44.8-119.56,37.34-169.93,17.24-267.53,50.09-297.37,32.85-29.84,14.49-49.78-18.49-52.29-72.41-5.51-62.51,21.4-51.7,59.46,10.82,38.09,23.11,124.43-4.48,278.15-6.95,38.74-34.79,110.82-20.22,131.61Z"/>
  <path d="M702,1082l103.02-54.36s-14.21-22.54-34.09-12.05c-19.88,10.49-60.26,22.49-71.1,1.95l-142.87-170.93-24.91,13.14,169.95,222.24Z"/>
  <path d="M204.92,1057.07l-101.15-57.76s14.95-22.06,34.47-10.91c19.52,11.15,59.48,24.48,71,4.32l148.48-166.08,24.46,13.97-177.25,216.46Z"/>
  <path class="st2" d="M446.02,212.92c142.98-24.77,310.36,71.93,324.64,216.82,14.28,144.89-50.8,377.48-196.33,430.69-145.54,53.21-294.93,4.73-364.97-131.3-80.88-157.08-114.86-455.3,236.66-516.21Z"/>
  <path class="st1" d="M459.91,268.76c69.33-5.27,162.91,21.27,205.02,92.47,42.1,71.2,38.93,113.2,21.5,120.33-17.43,7.13-111.16-9.27-207.74-3.46-96.57,5.81-202.28,21.37-227.53,24.66-25.25,3.29-34.62-32.95-19.07-70.82,19.82-48.27,54.45-149.99,227.83-163.18Z"/>
  <path class="st0" d="M607.76,390.53c-21.94-.66-28.79,23.34-28.12,29.95,1.24,12.27,17.87,6.6,27.49,4.71,11.04-2.16,18.81,4.99,25.53-1.59,4.01-3.93,2.68-32.24-24.89-33.08Z"/>
  <path class="st0" d="M334.23,393.72c-21.94-.66-28.79,23.34-28.12,29.95,1.24,12.27,17.87,6.6,27.49,4.71,11.04-2.16,18.81,4.99,25.53-1.59,4.01-3.93,2.68-32.24-24.89-33.08Z"/>
</svg>