<?xml version="1.0" encoding="UTF-8"?>
<svg id="Calque_1" xmlns="http://www.w3.org/2000/svg" version="1.1" viewBox="0 0 1291.66 1027.38">
  <!-- Generator: Adobe Illustrator 29.3.0, SVG Export Plug-In . SVG Version: 2.1.0 Build 146)  -->
  <defs>
    <style>
      .st0 {
        fill: #b4b4b3;
      }

      .st1 {
        fill: #1d1e1c;
      }

      .st2 {
        fill: #1d1d1b;
      }

      .st3 {
        fill: #755699;
      }

      .st4 {
        fill: #fff;
      }

      .st5 {
        fill: #9bd1cd;
      }

      .st6 {
        fill: #cfcfcf;
      }
    </style>
  </defs>
  <path class="st0" d="M957.7,725.06c-1.22,17.31-5.91,71.23-1.61,74.35s7.86-.78,15.65,1.95c7.79,2.73,18.25,3.11,20.68,3.13,2.44.02,12.89-7.03,18.75-8.6,5.86-1.56-4.69-73.06-4.69-73.06l-48.78,2.22Z"/>
  <g>
    <path class="st1" d="M738.37,976.2h-112.99s1.98-25.77,23.79-25.77,61.88-7.99,61.88-30.51v-211.32h27.32v267.6Z"/>
    <path class="st1" d="M768.85,976.2h112.99s-1.98-25.77-23.79-25.77c-21.8,0-61.88-7.99-61.88-30.51v-211.32s-27.32,0-27.32,0v267.6Z"/>
    <path class="st5" d="M1055.53,185.29c-83.25-120.91-297.11-136.02-436.09-95.15-101.09,29.73-216.14,104.94-231.92,265.62-21.8,222.01,111,317.16,190.29,352.84,79.29,35.68,331.03,63.43,455.91-91.18,124.88-154.61,105.06-311.21,21.8-432.13Z"/>
    <path class="st4" d="M904.71,491.39c-92.49,37.9-219.85,29.57-289.59,11.37-69.74-18.2-123.57-74.29-109.92-161.47,10.46-66.84,60.65-107.65,129.63-126.6,72.7-19.97,237.28-18.95,281.25-2.27,43.97,16.68,101.58,59.13,100.83,119.78-.76,60.65-19.71,121.29-112.2,159.2Z"/>
    <circle class="st1" cx="602.99" cy="347.36" r="27.29"/>
    <circle class="st1" cx="922.15" cy="347.36" r="27.29"/>
  </g>
  <path d="M500.89,616.86c10.76-3.59,26.89,9.86,22.41,16.14-4.48,6.28-61.86,31.38-115.65,31.38s-98.61-10.76-121.92-52c-23.31-41.24-26.89-103.99-43.03-111.17-16.14-7.17-67.24-15.24-71.72-33.17-4.48-17.93,8.96-28.69,36.76-24.21,27.79,4.48,52,14.34,55.58,12.55,3.59-1.79-11.65-13.45-10.76-20.62.9-7.17,15.24-8.96,22.41-5.38,7.17,3.59,15.24,18.83,14.34,53.79-.9,34.96-.73,82.41,32.27,120.13,31.38,35.86,77.1,42.14,117.44,34.96,40.34-7.17,61.86-22.41,61.86-22.41Z"/>
  <path class="st2" d="M1070.82,564.67c1.39,4.9,3.86,8.23,5.47,22.52,5.72,50.81,10.78,117.65-21.57,137.26-32.35,19.61-80.39,13.73-109.81-6.86-29.41-20.59-55.88-51.71-65.69-55.76-9.8-4.05-22.55-16.79-12.75-32.48s55.88-18.63,66.67-2.94c10.78,15.69,14.71,47.06,33.33,60.79,18.63,13.73,51.96,24.51,70.59,9.8,18.63-14.71,21.26-54.7,16.36-105.68l17.38-26.65Z"/>
  <path class="st6" d="M971.74,690.74s25.36,11.71,24.2,58.67c-1.31,53.12-3.13,74.62,0,81.65,3.13,7.03,22.27-1.95,29.69,0,7.42,1.95,16.8,6.25,22.27,2.73,5.47-3.52,19.93-1.17,24.22-2.34,4.3-1.17,2.34-11.33,1.95-20.32-.39-8.99,7.97-111.8-28.44-124.46-14.92,2.96-18.44-2.57-24.69,0-6.25,2.57-12.5,1.4-16.8,1.01s-11.72.39-16.02,1.56c-4.3,1.17-11.29-1.7-16.39,1.49Z"/>
  <g>
    <ellipse class="st6" cx="215.67" cy="437.48" rx="169.46" ry="19.93"/>
    <path class="st6" d="M362.35,437.48c0-81.01-65.67-146.68-146.68-146.68s-146.68,65.67-146.68,146.68h293.36Z"/>
    <circle class="st6" cx="218.86" cy="283.32" r="14.6"/>
  </g>
  <g>
    <g>
      <polygon class="st3" points="668.26 637.9 668.26 520.01 779.78 578.96 668.26 637.9"/>
      <polygon class="st3" points="869.43 520.01 869.43 637.9 751.54 578.96 869.43 520.01"/>
    </g>
    <circle class="st3" cx="768.85" cy="578.96" r="26.47"/>
  </g>
</svg>