<?xml version="1.0" encoding="UTF-8"?>
<svg id="Calque_1" xmlns="http://www.w3.org/2000/svg" version="1.1" viewBox="0 0 1203.09 1143.02">
  <!-- Generator: Adobe Illustrator 29.3.0, SVG Export Plug-In . SVG Version: 2.1.0 Build 146)  -->
  <defs>
    <style>
      .st0 {
        fill: #ffce00;
      }

      .st1 {
        fill: #1d1d1b;
      }

      .st2 {
        fill: #fff;
      }

      .st3 {
        fill: #9bd1cd;
      }
    </style>
  </defs>
  <path class="st1" d="M463.89,685.97s-78,9.45-118.19-85.09c-40.18-94.55-82.73-354.56-99.28-373.47-16.55-18.91-78-21.27-70.91,21.27,7.09,42.55,87.46,290.74,115.82,347.47,28.36,56.73,75.64,127.64,172.55,125.28,96.91-2.36,0-35.46,0-35.46Z"/>
  <path d="M735.98,1058.76h114.12s-2-26.03-24.02-26.03c-22.02,0-62.5-8.07-62.5-30.82v-213.43s-27.59,0-27.59,0v270.28Z"/>
  <path d="M705.2,1058.76h-114.12s2-26.03,24.02-26.03c22.02,0,62.5-8.07,62.5-30.82v-213.43s27.59,0,27.59,0v270.28Z"/>
  <path class="st0" d="M857.35,152.58c-140.37-41.28-357.61-14.75-441.7,107.37-84.09,122.12-55.81,303.49,50.37,432.85,127.81,155.72,365.7,144.84,451.13,102.21,78.58-39.21,214.79-151.83,197.71-367.84-12.86-162.56-155.4-244.56-257.51-274.59Z"/>
  <path class="st1" d="M1024.86,711.61c1.37,4.84,2.39,10.6,2.84,17.2,3.46,50.34,10.64,116.1-21.28,135.45-31.93,19.35-79.33,13.54-108.36-6.77-29.02-20.32-55.15-51.03-64.82-55.02-9.67-3.99-22.25-16.57-12.58-32.05,9.67-15.48,55.15-18.38,65.79-2.9,10.64,15.48,14.51,46.44,32.89,59.98,18.38,13.54,51.28,24.19,69.66,9.67,18.38-14.51,19.74-53.92,14.9-104.23l20.96-21.34Z"/>
  <g>
    <path class="st2" d="M410.54,344.93c.92,29.93,126.88,76.35,222.32,116.65,95.44,40.3,209.96,95.44,229.05,86.95,19.09-8.48,42.42-118.77,0-173.91-42.42-55.14-168-113.27-252.38-123.01-110.28-12.72-200.75,36.05-198.99,93.32Z"/>
    <path class="st1" d="M519.13,318.86c20.65,7.46,18.19,32.3,15.13,38.2-5.67,10.96-19.04-.44-27.3-5.73-9.47-6.07-19.33-2.28-23.15-10.87-2.28-5.13,9.37-30.97,35.31-21.6Z"/>
    <path class="st1" d="M747.8,417.83c20.65,7.46,18.19,32.3,15.13,38.2-5.67,10.96-19.04-.44-27.3-5.73-9.47-6.07-19.33-2.28-23.15-10.87-2.28-5.13,9.37-30.97,35.31-21.6Z"/>
  </g>
  <g>
    <rect class="st3" x="166.84" y="102.53" width="180.9" height="309.37" rx="3.7" ry="3.7" transform="translate(247.51 -106.47) rotate(43.47)"/>
    <circle cx="298.9" cy="122.97" r="12.06"/>
    <circle cx="301.98" cy="149.97" r="6.93"/>
  </g>
  <path class="st1" d="M158.97,182.49c6.95-19.11,44.91-26,56.73-16.55,11.82,9.45,32.55,46.36,9.18,58.64-23.36,12.27-43.41,11.36-49.93,0-6.52-11.36-25.43-16.09-15.98-42.09Z"/>
</svg>