<?xml version="1.0" encoding="UTF-8"?>
<svg id="Calque_1" xmlns="http://www.w3.org/2000/svg" version="1.1" viewBox="0 0 1039.94 1016.41">
  <!-- Generator: Adobe Illustrator 29.3.0, SVG Export Plug-In . SVG Version: 2.1.0 Build 146)  -->
  <defs>
    <style>
      .st0 {
        fill: #1d1d1b;
      }

      .st1 {
        fill: #fff;
      }

      .st2 {
        fill: #3a3938;
      }

      .st3 {
        fill: #9bd1cd;
      }
    </style>
  </defs>
  <g>
    <path class="st0" d="M699.99,595.96c-11.3.99-21.55,21.58-14.14,23.72,34.01,9.84,74.58-2.01,123.93-23.41,49.35-21.4,83.29-94.16,88.27-141.27,4.98-47.11-12.9-80.27-.95-93.27,11.95-13,55.63-40.73,52.61-58.96-3.02-18.23-19.64-22.75-43.35-7.59-23.72,15.17-42,33.84-46,33.62-4-.22,5.34-16.97,1.67-23.2-3.68-6.22-17.55-2.16-22.7,3.98-5.15,6.14-6.49,23.34,8.23,55.06,14.73,31.72,26.82,67.81,11.54,115.54-14.52,45.38-41.68,88.2-90.26,104.75-38.78,13.22-68.85,11.02-68.85,11.02Z"/>
    <circle class="st0" cx="826.45" cy="193.03" r="55.85"/>
    <polygon class="st2" points="982.29 412.03 940.26 436.53 808.62 250.46 885.22 205.8 982.29 412.03"/>
    <path d="M921.21,272.68c10.23-5.39,31.79,25.15,27.07,35.26-4.72,10.11-15.72,2.82-26.4-6.36-9.05-7.78-10.87-23.53-.66-28.91Z"/>
    <path d="M836.4,330.95c-2.51-25.89,5.46-28.85,12.06-30.09,6.16-1.15,23.6-.92,17.97,17.54-5.63,18.47-2.61,28.24,5.27,34.23,7.87,5.99,10.75,27.1,10.75,27.1l-46.05-48.78Z"/>
  </g>
  <path d="M383.77,969.33h-114.12s2-26.03,24.02-26.03,62.5-8.07,62.5-30.82l32.21-213.43h27.59l-32.21,270.28Z"/>
  <path d="M414.55,969.33h114.12s-2-26.03-24.02-26.03c-22.02,0-49.62-8.07-49.62-30.82l19.33-213.43h-27.59s-32.21,270.28-32.21,270.28Z"/>
  <path class="st3" d="M193.96,161.87c73.67-55.79,172.13-116.54,291.36-114.75,119.23,1.79,251.92,54.69,286.88,178.4s25.1,326.32-112.96,430.32c-138.06,103.99-314.67,126.41-438.39,58.27-123.72-68.13-178.4-247.43-159.58-350.53,18.83-103.1,96.12-174.02,132.68-201.71Z"/>
  <path class="st1" d="M407.33,123.32c57.49-28.74,136.27-39.45,191.85-17.03,55.58,22.41,106.68,82.23,120.13,105.66,13.45,23.43,22.27,68.01,7.33,88.52-28.86,39.63-117.86,55.79-197.97,92.97-30.19,14.01-149.54,53.31-201.67,18.29-47.63-32-59.53-110.01-43.39-157.52,16.14-47.51,53.79-95.93,123.72-130.89Z"/>
  <path class="st0" d="M128.09,627.57c-1.39,4.9-2.52,11.81-2.98,18.5-3.51,51.01-10.78,117.65,21.57,137.26,32.35,19.61,80.39,13.73,109.81-6.86,29.41-20.59,55.88-51.71,65.69-55.76,9.8-4.05,22.55-16.79,12.75-32.48-9.8-15.69-55.88-18.63-66.67-2.94-10.78,15.69-14.71,47.06-33.33,60.79-18.63,13.73-51.96,24.51-70.59,9.8-18.63-14.71-20.39-50.41-15.49-101.39l-20.74-26.91Z"/>
  <path class="st0" d="M610.74,158.71c-20.65,7.46-18.19,32.3-15.13,38.2,5.67,10.96,19.04-.44,27.3-5.73,9.47-6.07,19.33-2.28,23.15-10.87,2.28-5.13-9.37-30.97-35.31-21.6Z"/>
  <path class="st0" d="M382.07,257.68c-20.65,7.46-18.19,32.3-15.13,38.2,5.67,10.96,19.04-.44,27.3-5.73,9.47-6.07,19.33-2.28,23.15-10.87,2.28-5.13-9.37-30.97-35.31-21.6Z"/>
</svg>