<?xml version="1.0" encoding="UTF-8"?>
<svg id="Calque_1" xmlns="http://www.w3.org/2000/svg" version="1.1" viewBox="0 0 1802.6 1231.65">
  <!-- Generator: Adobe Illustrator 29.3.0, SVG Export Plug-In . SVG Version: 2.1.0 Build 146)  -->
  <defs>
    <style>
      .st0 {
        fill: #ffce00;
      }

      .st1 {
        stroke: #e76f38;
        stroke-width: 22.05px;
      }

      .st1, .st2, .st3 {
        fill: none;
        stroke-linecap: round;
        stroke-miterlimit: 10;
      }

      .st4 {
        fill: #e76f38;
      }

      .st5 {
        fill: #b1b1b1;
      }

      .st2 {
        stroke-width: 4.41px;
      }

      .st2, .st3 {
        stroke: #1d1d1b;
      }

      .st3 {
        stroke-width: 3.26px;
      }

      .st6 {
        fill: #fff;
      }
    </style>
  </defs>
  <polygon class="st4" points="173.89 1165.66 844.65 862.57 1371.36 862.57 1628.71 1165.66 173.89 1165.66"/>
  <g>
    <g>
      <path class="st5" d="M796.83,904.44l-68.52-27.26V363.86h16.64c2.7,0,4.89-2.19,4.89-4.89s-2.19-4.89-4.89-4.89h-27.63c15.43-1.06,27.63-13.88,27.63-29.58s-13.29-29.68-29.68-29.68-29.68,13.29-29.68,29.68,12.2,28.52,27.63,29.58h-27.63c-2.7,0-4.89,2.19-4.89,4.89s2.19,4.89,4.89,4.89h16.55v513.31l-69.77,27.26c-11.78,3.26-18.73,7.25-18.73,11.56v19.94s14.48,17.28,100.96,17.28,100.96-17.28,100.96-17.28v-19.94c0-4.31-6.95-8.3-18.73-11.56Z"/>
      <path class="st3" d="M815.56,916c0,11.01-45.2,19.94-100.96,19.94s-100.96-8.93-100.96-19.94"/>
    </g>
    <path class="st1" d="M344.17,361.48s93.99,337.51,196.66,337.51,161.3-305.09,161.3-305.09"/>
    <g>
      <path class="st5" d="M455.53,1055.06l-92.79-36.92V322.98h22.53c3.65,0,6.62-2.96,6.62-6.62s-2.96-6.62-6.62-6.62h-37.42c20.9-1.43,37.42-18.79,37.42-40.06s-18-40.2-40.2-40.2-40.2,18-40.2,40.2,16.52,38.63,37.42,40.06h-37.42c-3.65,0-6.62,2.96-6.62,6.62s2.96,6.62,6.62,6.62h22.41v695.16l-94.48,36.92c-15.95,4.42-25.36,9.82-25.36,15.66v27.01s19.6,23.4,136.72,23.4,136.72-23.4,136.72-23.4v-27.01c0-5.84-9.41-11.24-25.36-15.66Z"/>
      <path class="st2" d="M480.9,1070.72c0,14.92-61.21,27.01-136.72,27.01s-136.72-12.09-136.72-27.01"/>
    </g>
  </g>
  <g>
    <g>
      <path d="M776.16,558.13c-55.1,45.92-99.18,67.96-86.33,95.51,12.86,27.55,73.47,31.22,121.23,51.43,47.76,20.2,58.78,27.55,53.27,56.94-5.51,29.39,1.84,34.9,29.39,27.55,27.55-7.35,36.73-33.06,22.04-64.29-14.69-31.22-64.29-44.83-101.02-49.96-36.73-5.14-101.02-14.32-90-36.36,11.02-22.04,64.29-58.78,64.29-58.78l-12.86-22.04Z"/>
      <path d="M1436.49,592.47c41.14,36.66,104.41,116.83,108.32,135.97,3.91,19.14-16.09,37.72-55.6,36.23-39.5-1.5-128.88-12.74-140.79-2.68-11.91,10.05-12.09,34-17.14,50.16-5.05,16.16-52.17,6.65-46.19-20.49,5.98-27.14,28.68-77.58,76.08-71.36,47.4,6.22,138.51,18.71,143.38,4.75,4.87-13.96-77.63-102.04-77.63-102.04l9.57-30.53Z"/>
      <g>
        <path d="M1085.5,1036.27h-114.12s2-26.03,24.02-26.03,55.98-8.07,55.98-30.82l-13.04-213.43h27.59l19.56,270.28Z"/>
        <path d="M1168.44,1036.27h114.12s-2-26.03-24.02-26.03c-22.02,0-62.5-8.07-62.5-30.82l-45.64-213.43h-27.59s45.64,270.28,45.64,270.28Z"/>
        <g>
          <path class="st0" d="M920.03,86.42c264.34-63.05,427.79,28.91,511.88,151.03,84.09,122.12,99.02,276.31-22.02,436.45-127.33,168.46-373.1,111.29-453.19,75.26-80.08-36.04-251.22-162.34-229.19-386.57,15.94-162.29,89-251.47,192.52-276.16Z"/>
          <path class="st6" d="M1004.07,170.06c91.68-13.75,183.6,19.81,224.75,43.52,41.15,23.71,115.05,82.13,115.98,143.38,1.07,70.22-33.08,121.77-131.4,144.67-98.32,22.9-254.26,4.93-320.87-24.45-66.61-29.37-106.11-108.7-78.46-193.42,21.2-64.95,96.34-99.65,190-113.7Z"/>
          <circle cx="928.93" cy="311.87" r="27.56"/>
          <circle cx="1214.92" cy="356.88" r="27.56"/>
        </g>
      </g>
    </g>
    <path d="M1412.16,148.28l-525.17-78.52-6.12,39.26h10.2s-3.06,62.71-3.06,78.01c0,15.3,7.14,30.59,22.43,32.63,15.3,2.04,94.84,16.32,105.03,18.36,10.2,2.04,24.47-8.16,30.59-20.39,6.12-12.24,26.51-52.01,26.51-52.01l42.28,4.09s6.67,56.6,10.74,68.57c4.08,11.98,12.24,21.15,28.55,24.21,16.32,3.06,135.63,27.53,148.88,30.59,13.26,3.06,26.51-11.22,31.61-24.47,5.1-13.26,21.41-57.11,21.41-57.11l48.95-1.02,7.14-62.2Z"/>
  </g>
</svg>