<?xml version="1.0" encoding="UTF-8"?>
<svg id="Calque_1" xmlns="http://www.w3.org/2000/svg" version="1.1" viewBox="0 0 951.88 1249.1">
  <!-- Generator: Adobe Illustrator 29.3.0, SVG Export Plug-In . SVG Version: 2.1.0 Build 146)  -->
  <defs>
    <style>
      .st0 {
        fill: #ffce00;
      }

      .st1 {
        fill: none;
        stroke: #fff;
        stroke-miterlimit: 10;
        stroke-width: 3.79px;
      }

      .st2 {
        fill: #1d1d1b;
      }

      .st3 {
        fill: #755699;
      }

      .st4 {
        fill: #fff;
      }
    </style>
  </defs>
  <g>
    <path d="M451.6,1165.46h-114.12s2-26.03,24.02-26.03,62.5-8.07,62.5-30.82v-213.43h27.59v270.28Z"/>
    <path d="M482.38,1165.46h114.12s-2-26.03-24.02-26.03c-22.02,0-62.5-8.07-62.5-30.82v-213.43s-27.59,0-27.59,0v270.28Z"/>
    <g>
      <path class="st3" d="M331.48,418.92c140.37-31.9,356.36-20.11,440.45,74.26,84.09,94.37,104.11,216.58-22.02,337.25-126.13,120.67-380.39,99.01-460.47,71.16-80.08-27.85-214.22-102.1-192.2-275.37,15.94-125.4,132.13-184.09,234.24-207.3Z"/>
      <path class="st4" d="M347.03,516.12c73.43-15.59,239.65-14.79,284.06-1.77,44.41,13.02,82.27,50.38,101.83,93.48,16.8,37.02,56.72,94.66-36.69,124.24-93.41,29.58-369.12,23.07-439.56,8.87-70.44-14.2-68.6-66.21-40.58-126.02,22.58-48.19,61.25-84.01,130.93-98.8Z"/>
      <ellipse cx="347.47" cy="569.67" rx="27.56" ry="21.27"/>
      <ellipse cx="637.22" cy="569.67" rx="27.56" ry="21.27"/>
    </g>
  </g>
  <path d="M147.09,707.43c-4.19-72.76-60.49-172.32,25.96-328.44,20.61-37.22,68.32-71.94,80.92-73.87,12.6-1.93,18.22,12.09,28.77.06,10.56-12.03,44.73-37.52,27.22-56.7-17.51-19.18-32.15-27.35-76.42,10.67-44.27,38.02-87.51,86.93-105.88,142.12-25.68,77.15-46.44,154.25-5.82,297.81,14.66,51.81,25.25,8.34,25.25,8.34Z"/>
  <path d="M783.9,713.65c14.34-71.45,84.02-162.15,20.28-328.84-15.2-39.74-57.58-80.8-69.78-84.47-12.21-3.67-19.73,9.42-28.5-3.97-8.77-13.39-39.03-43.41-19.01-59.95,20.02-16.54,35.66-22.58,74.17,21.26,38.51,43.84,74.48,98.33,84.94,155.55,14.63,79.99,24.39,159.24-35.92,295.7-21.77,49.25-26.17,4.72-26.17,4.72Z"/>
  <g>
    <ellipse class="st2" cx="322.09" cy="295.69" rx="110.85" ry="69.24" transform="translate(3.92 595.6) rotate(-85.86)"/>
    <path class="st2" d="M314.09,406.26s21.48-.21,32.1,10.41c10.62,10.62,86.29,24.96,86.29,24.96l50.45-250.37s-56.54-18.15-78.33-13.55-40.16,14.84-74.51,7.42c-34.35-7.42-16,221.13-16,221.13Z"/>
    <polygon class="st2" points="266.54 343.65 188.21 237.28 313.73 134.18 327.6 128.66 364.77 191.26 343.53 203.42 315.71 151.16 222.12 226.34 276.49 303.03 266.54 343.65"/>
    <polygon class="st2" points="548.66 192.95 582.26 351.07 746.32 351.07 698.88 109.02 548.66 192.95"/>
    <polygon class="st2" points="558.54 558.61 737.03 417.25 548.66 375.93 461.1 428.93 558.54 558.61"/>
    <ellipse class="st0" cx="498.08" cy="310.09" rx="74.3" ry="118.84"/>
    <polygon class="st2" points="412.28 230.05 493.32 208.57 686.23 83.64 512.49 160.11 412.28 230.05"/>
    <polygon class="st2" points="451.81 276.22 499.25 536.87 412.28 428.93 388.56 289.8 451.81 276.22"/>
    <polyline class="st1" points="412.28 428.93 388.56 289.8 451.81 276.22"/>
  </g>
</svg>