<?xml version="1.0" encoding="UTF-8"?>
<svg id="Calque_1" data-name="Calque 1" xmlns="http://www.w3.org/2000/svg" viewBox="0 0 1700.79 838.14">
  <defs>
    <style>
      .cls-1 {
        fill: #fff;
      }
    </style>
  </defs>
  <g>
    <g>
      <path class="cls-1" d="M232.05,690.87l-13.17.55c-39.9,0-75.03-8.33-105.41-24.98-30.38-16.65-53.99-40.26-70.82-70.82-16.84-30.56-25.25-65.79-25.25-105.68s8.41-75.03,25.25-105.41c16.83-30.38,40.44-53.98,70.82-70.82,30.38-16.83,65.51-25.25,105.41-25.25s75.12,8.42,105.68,25.25c30.56,16.84,54.25,40.44,71.09,70.82,16.83,30.38,25.25,65.51,25.25,105.41,0,29.28-6.68,58.19-20.03,86.74-13.37,28.55-31.02,51.8-52.98,69.72l42.82,36.78-98.82,59.84-59.84-52.15ZM264.99,548.96c10.98-14.46,16.47-34.13,16.47-59.02s-5.67-45.47-17.02-59.57c-11.35-14.08-26.54-21.14-45.57-21.14s-34.59,7.33-45.57,21.96c-10.98,14.65-16.47,34.22-16.47,58.74s5.58,45.48,16.74,59.56c11.16,14.09,26.26,21.14,45.29,21.14s35.13-7.23,46.11-21.68Z"/>
      <path class="cls-1" d="M478.26,649.97c-26.54-27.63-39.8-65.61-39.8-113.92v-238.26h127.91v240.46c0,10.61,2.75,18.66,8.24,24.15,5.49,5.49,12.98,8.24,22.51,8.24,10.24,0,17.93-2.93,23.06-8.78,5.12-5.85,7.69-13.72,7.69-23.6v-240.46h127.91v238.26c0,51.25-14.19,89.95-42.55,116.11-28.37,26.17-67.07,39.26-116.11,39.26-52.7,0-92.33-13.81-118.86-41.45Z"/>
      <path class="cls-1" d="M1241.47,297.79h139.44v384.29h-139.44v-384.29Z"/>
      <path class="cls-1" d="M1566.73,674.12c-13.37-11.53-20.04-25.53-20.04-42,0-10.24,3.02-19.85,9.06-28.82,6.04-8.97,14.36-16.1,24.98-21.41,10.61-5.3,22.14-7.97,34.58-7.97s23.88,2.66,34.32,7.97c10.43,5.31,18.66,12.44,24.7,21.41,6.04,8.97,9.06,18.58,9.06,28.82,0,16.11-6.58,30.02-19.76,41.72-13.18,11.71-29.28,17.57-48.31,17.57s-35.23-5.76-48.58-17.29ZM1557.68,297.79h115.29l-10.98,260.22h-93.33l-10.98-260.22Z"/>
    </g>
    <g>
      <path class="cls-1" d="M254.95,242.44c-18.19-9.97-32.32-24.1-42.4-42.4-10.08-18.29-15.12-39.38-15.12-63.28s5.04-44.92,15.12-63.11c10.08-18.19,24.21-32.32,42.4-42.4,18.19-10.08,39.23-15.12,63.11-15.12s44.98,5.05,63.28,15.12c18.29,10.08,32.48,24.22,42.57,42.4,10.08,18.19,15.12,39.23,15.12,63.11s-5.04,44.98-15.12,63.28c-10.08,18.3-24.27,32.43-42.57,42.4-18.3,9.97-39.39,14.96-63.28,14.96s-44.92-4.99-63.11-14.96ZM345.67,172.1c6.58-8.66,9.86-20.43,9.86-35.34s-3.4-27.23-10.19-35.66c-6.79-8.43-15.89-12.65-27.28-12.65s-20.71,4.39-27.28,13.15c-6.58,8.77-9.86,20.5-9.86,35.17s3.34,27.24,10.03,35.66c6.68,8.44,15.72,12.66,27.12,12.66s21.04-4.32,27.61-12.98Z"/>
      <path class="cls-1" d="M450.85,21.72h85.79l45.03,101.24V21.72h80.86v230.09h-85.14l-45.69-102.55v102.55h-80.86V21.72Z"/>
      <path class="cls-1" d="M1241.38,21.72h83.49v230.09h-83.49V21.72Z"/>
      <path class="cls-1" d="M1376.81,88.45h-43.06V21.72h169.61v66.73h-43.06v163.37h-83.49V88.45Z"/>
      <path class="cls-1" d="M905.43,236.42l30.61-73.93c-1.22-16.06-6.31-28.37-15.3-36.9-10.41-9.86-27.01-17.31-49.8-22.35-8.77-1.97-15.23-3.89-19.39-5.75-4.17-1.86-6.24-4.44-6.24-7.72,0-5.92,6.35-8.88,19.06-8.88,21.04,0,42.29,7.56,63.77,22.68v-63.11c-19.94-16.21-44.27-24.32-72.97-24.32-15.78,0-30.69,2.46-44.7,7.39-14.03,4.93-25.64,13.26-34.84,24.98-9.21,11.73-13.81,26.9-13.81,45.53,0,16.66,3.39,29.97,10.19,39.93,6.79,9.97,14.68,17.32,23.67,22.03,8.98,4.72,19.83,9.04,32.54,12.98,8.55,2.63,14.74,4.98,18.57,7.07,3.83,2.08,5.75,4.88,5.75,8.38,0,3.07-1.43,5.54-4.27,7.4-2.85,1.86-7.56,2.79-14.13,2.79-13.15,0-25.86-3.45-38.13-10.36-12.27-6.9-22.35-14.41-30.24-22.51v71.33c9.42,9.42,20.54,15.83,33.36,19.23,12.82,3.39,25.15,5.1,36.98,5.1,18.62,0,35.55-3.34,50.78-10.03,6.84-3,13-6.68,18.55-10.96Z"/>
      <polygon class="cls-1" points="973.26 72.63 991.51 122.96 997.16 122.96 997.16 16.13 946.21 16.13 946.21 122.96 952.41 122.96 973.26 72.63"/>
      <path class="cls-1" d="M1214.44,76.28c-10.3-17.31-25.2-30.73-44.7-40.26-19.51-9.53-42.63-14.3-69.36-14.3h-84.15v169.35l22.03,60.74h62.12c26.73,0,49.85-4.77,69.36-14.3,19.5-9.53,34.4-22.95,44.7-40.27,10.29-17.31,15.45-37.47,15.45-60.48s-5.15-43.16-15.45-60.48ZM1135.38,171.61c-7.35,8.98-18.57,13.48-33.69,13.48h-2.3v-96.64h2.3c15.12,0,26.35,4.49,33.69,13.48,7.34,8.99,11.01,20.6,11.01,34.84s-3.67,25.86-11.01,34.85Z"/>
    </g>
  </g>
  <g>
    <path class="cls-1" d="M991.11,822.01h-67.28s1.18-15.34,14.16-15.34,36.85-4.76,36.85-18.17v-125.83h16.27v159.35Z"/>
    <path class="cls-1" d="M1009.26,822.01h67.28s-1.18-15.34-14.16-15.34c-12.98,0-36.85-4.76-36.85-18.17v-125.83s-16.27,0-16.27,0v159.35Z"/>
    <g>
      <path class="cls-1" d="M1179.96,351.06c-49.57-72-176.92-81-259.67-56.66-60.2,17.7-128.7,62.49-138.1,158.16-12.98,132.2,66.1,188.85,113.31,210.1,47.21,21.25,197.12,37.77,271.48-54.29,74.36-92.07,62.56-185.31,12.98-257.31ZM1090.16,533.33c-55.07,22.57-130.91,17.61-172.44,6.77-41.53-10.84-73.58-44.24-65.45-96.15,6.23-39.8,36.11-64.1,77.19-75.39,43.29-11.89,141.29-11.29,167.47-1.35,26.18,9.93,60.49,35.21,60.04,71.32-.45,36.11-11.74,72.22-66.81,94.8Z"/>
      <circle class="cls-1" cx="910.5" cy="447.56" r="16.25"/>
      <circle class="cls-1" cx="1100.54" cy="447.56" r="16.25"/>
    </g>
  </g>
</svg>