<?xml version="1.0" encoding="UTF-8"?>
<svg id="Calque_1" xmlns="http://www.w3.org/2000/svg" version="1.1" viewBox="0 0 1214.47 1054.63">
  <!-- Generator: Adobe Illustrator 29.3.0, SVG Export Plug-In . SVG Version: 2.1.0 Build 146)  -->
  <defs>
    <style>
      .st0 {
        fill: #e76f38;
      }

      .st1 {
        fill: #1d1e1c;
      }

      .st2 {
        fill: #1d1d1b;
      }

      .st3 {
        fill: #fff;
      }
    </style>
  </defs>
  <path class="st2" d="M859.99,498.07c-19.74,5.93,53.68,53.56,89.34,71.9,35.66,18.34,112.5,43.53,128.69,79.96,16.19,36.43,34.76,84.38,63.27,76.02,28.51-8.35-11.78-73.37-15.36-86.71s24.83,1.93,30.92-4.71c6.09-6.64-7.8-15.79-42.3-24.43-34.5-8.64-114.81-45.59-148.02-57.7-33.21-12.1-84.71-60.9-106.55-54.34Z"/>
  <path d="M483.47,1002.19h-114.12s2-26.03,24.02-26.03,62.5-8.07,62.5-30.82l32.21-213.43h27.59l-32.21,270.28Z"/>
  <path d="M584.29,1002.19h114.12s-2-26.03-24.02-26.03c-22.02,0-49.62-8.07-49.62-30.82l19.33-213.43h-27.59s-32.21,270.28-32.21,270.28Z"/>
  <path class="st0" d="M320.71,171.76c116.44-112.91,238.46-144.05,391.38-100.36,152.92,43.69,238.11,161.65,229.37,336.42-8.74,174.76-148.55,308.02-281.8,356.08-133.26,48.06-323.31,10.92-408.5-117.96-85.2-128.89-74.62-334.36,69.56-474.16Z"/>
  <path class="st3" d="M565.34,126.01c122.44-23.36,244.82,34.21,273.45,104.86,19.57,48.29,32.77,126.7-61.17,174.76-93.93,48.06-262.14,78.64-356.08,61.17-93.93-17.48-113.59-139.81-65.54-216.27,48.06-76.46,106.27-104.86,209.33-124.52Z"/>
  <path class="st2" d="M317.16,560.99c20.56,1.36-40.32,64.22-70.97,90.08-30.65,25.86-99.89,67.62-107.52,106.74-7.62,39.13-14.98,90.02-44.64,88.26-29.66-1.76-4.94-74.14-4.45-87.95.5-13.81-23.77,7.44-31.19,2.34-7.42-5.1,4.07-17.14,35.76-33.28,31.69-16.14,101.68-70.15,131.34-89.38,29.66-19.23,68.92-78.32,91.67-76.82Z"/>
  <circle class="st1" cx="440.75" cy="340.44" r="27.29"/>
  <circle class="st1" cx="727.83" cy="272.35" r="27.29"/>
</svg>